<svg aria-hidden="true" width="274" height="90" viewBox="0 0 274 90" fill="none" xmlns="http://www.w3.org/2000/svg">
    <path d="M72.6665 22.8868V0H72.2614V4.94291C63.6 -0.0270105 52.8679 -1.70166 42.2618 2.14283C39.0475 3.34929 35.9683 4.69081 33.0242 6.42848C28.4684 9.11152 24.723 11.6505 21.5087 15.405C21.5087 15.405 24.858 13.1271 26.8658 12.3258C31.9528 10.1829 37.0487 9.38162 42.4058 9.38162C53.4801 9.38162 64.1492 13.5412 72.2703 22.4817V24.8946C64.1312 15.7201 53.264 11.2543 42.1357 11.2543C42.1357 11.2543 34.2307 10.7141 26.3346 14.1985V14.3335C23.6516 15.54 21.7788 17.4127 21.7788 17.4127C16.2867 23.9763 13.2075 31.3411 13.7387 40.4526C15.8816 32.2865 23.3815 26.2541 32.2229 26.2541H40.9292L43.7383 35.0956H32.2229C26.8658 35.0956 21.9139 40.1825 21.9139 45.4045C21.9139 50.6266 27.0009 55.7135 32.2229 55.7135H43.4772L36.9137 64.5549H32.2229C28.3424 64.5549 24.723 63.3485 21.6438 61.3407C29.8099 71.9198 43.2071 77.2769 57.1355 74.6028C62.2585 73.5494 67.6426 71.3346 72.2703 68.3364V70.4252C67.6876 73.3603 62.6096 75.2961 57.5407 76.3405C38.1202 80.221 16.5568 66.8328 12.5323 45.6656C8.91287 26.7763 20.9685 15.9272 20.9685 15.9272C16.0166 19.0063 11.1907 22.6257 7.57135 27.1815C-0.0636004 36.6982 -2.61158 49.159 5.02337 60.8095C5.82468 62.151 6.63499 63.3575 7.57135 64.5639C10.6505 68.7145 13.8648 72.6041 17.2141 75.9533C25.6503 84.5247 35.4281 90.1518 45.6111 90.1518C48.9603 90.1518 52.3096 89.6116 55.794 88.2791C62.0334 85.8932 67.7326 81.5265 72.2703 76.1064V90.1518H72.6755V22.9049V22.8868H72.6665ZM54.7136 64.4289H43.8644L52.5707 52.6433C54.4435 49.8343 53.6422 47.2863 53.6422 47.2863L46.8085 26.1281H56.0461L60.998 41.398L72.2523 26.1281V40.6867L54.7046 64.4379L54.7136 64.4289ZM227.499 32.5476H230.308V57.7303H227.499V32.5476ZM99.9831 32.5476H102.792V47.0162C102.792 54.246 98.5065 58.2705 92.2131 58.2705C86.0547 58.2705 81.769 54.39 81.769 47.2863V32.5566H84.5781V47.0252C84.5781 52.5173 87.6573 55.5965 92.3481 55.5965C97.0389 55.5965 99.9831 52.7874 99.9831 47.2953V32.5656V32.5476ZM124.635 32.5476H127.444V57.7303H125.166L108.824 36.9683V57.7303H106.015V32.5476H108.698L124.635 52.7694V32.5476ZM273.309 55.1823V57.7303H254.96V32.6826H273.174V35.2306H257.769V43.8019H271.562V46.3499H257.769V55.1913H273.309V55.1823ZM232.856 32.4125H252.682V35.0956H244.246V57.7303H241.302V35.0956H232.865V32.4125H232.856ZM165.618 55.1823H181.158V57.7303H162.809V32.6826H181.023V35.2306H165.618V43.8019H179.412V46.3499H165.618V55.1913V55.1823ZM224.42 51.0317C224.42 55.3174 220.801 58.1265 215.849 58.1265H215.714C211.698 58.1265 208.484 56.7849 205.405 54.1109L207.142 51.9681C209.826 54.381 212.5 55.5875 215.849 55.5875C219.198 55.5875 221.476 53.7148 221.476 51.1668C221.476 48.7538 220.27 47.4123 214.912 46.3409C209.15 45.1344 206.476 43.2617 206.476 38.9761C206.476 35.0956 211.167 32.1424 214.777 32.1424C218.388 32.1424 221.071 33.2138 223.619 35.2216L222.007 37.3644C219.729 35.4917 217.992 34.6814 214.777 34.6814C211.563 34.6814 209.42 36.4191 209.42 38.832C209.42 41.2449 210.762 42.5865 216.254 43.7839C221.881 44.9904 224.42 47.1332 224.42 51.0137V51.0317ZM265.269 30.2697H262.991L266.745 26.9204H269.429L265.278 30.2697H265.269ZM203.793 40.0475C203.793 38.0397 203.127 36.167 201.785 34.9605C200.174 33.3489 197.77 32.4125 194.556 32.4125H183.706V57.5953L183.841 57.7303H186.651V47.9525H193.88L201.245 57.7303H204.73L196.96 47.4213C200.975 46.7551 203.793 44.2071 203.793 40.0565V40.0475ZM186.651 45.4045V35.2216H194.421C198.436 35.2216 200.849 37.0943 200.849 40.1735C200.849 43.5228 198.166 45.3955 194.421 45.3955H186.651V45.4045ZM130.658 32.5476H133.467V57.7303H130.658V32.5476ZM157.848 32.4125H160.928L150.078 57.8654H147.53L136.681 32.4125H139.895L148.872 54.1109L157.848 32.4125ZM144.055 25.849V22.3646H146.603L149.151 25.849H150.358L147.674 22.2296C149.016 21.9595 150.087 21.1582 150.087 19.6816C150.087 19.0153 149.817 18.3401 149.421 17.9439C148.881 17.4037 147.945 17.0076 146.873 17.0076H142.993V25.849H144.064H144.055ZM144.19 17.8179H146.873C148.35 17.8179 149.151 18.4841 149.151 19.5556C149.151 20.762 148.215 21.4283 146.873 21.4283H144.19V17.8089V17.8179ZM159.46 23.31C159.46 22.3736 159.055 21.9685 157.182 21.5723C155.174 21.1672 154.238 20.5009 154.238 19.0243C154.238 17.6828 155.976 16.6114 157.182 16.6114C158.389 16.6114 159.325 17.0166 160.261 17.6828L159.721 18.4841C158.92 17.8179 158.245 17.5478 157.173 17.5478C156.102 17.5478 155.3 18.214 155.3 19.0243C155.3 19.8347 155.706 20.3659 157.713 20.762C159.721 21.1672 160.658 21.9685 160.658 23.31C160.658 24.9216 159.316 25.858 157.578 25.858L157.308 25.7229C155.967 25.7229 154.76 25.1827 153.689 24.2464L154.355 23.5801C155.291 24.3814 156.228 24.7866 157.434 24.7866C158.641 24.7866 159.442 24.2464 159.442 23.31H159.46ZM152.626 25.849H151.69V17.0076H152.626V25.849ZM110.967 25.984C110.967 25.984 111.021 25.984 111.048 25.984C111.066 25.984 111.084 25.984 111.102 25.984H110.967ZM133.602 19.8257C133.602 18.088 132.261 17.0166 130.253 17.0166H126.903V25.858H127.975V22.7788H130.118C131.99 22.7788 133.602 21.8424 133.602 19.8347V19.8257ZM130.388 21.6984H128.11V17.8179H130.388C131.864 17.8179 132.801 18.4841 132.801 19.6906C132.801 20.8971 131.864 21.6984 130.388 21.6984ZM141.237 25.849H142.308L138.293 16.8725H137.357L133.341 25.849H134.277L135.349 23.4361H140.175L141.246 25.849H141.237ZM135.619 22.4997L137.627 17.9439L139.634 22.4997H135.619ZM105.475 19.6906C105.475 19.0244 105.205 18.3491 104.809 17.9529C104.269 17.4127 103.332 17.0166 102.261 17.0166H98.3804V25.858H99.4519V22.3736H102L104.548 25.858H105.754L103.071 22.2386C104.413 21.9685 105.484 21.1672 105.484 19.6906H105.475ZM99.4519 21.4283V17.8089H102.135C103.611 17.8089 104.413 18.4751 104.413 19.5466C104.413 20.753 103.476 21.4193 102.135 21.4193H99.4519V21.4283ZM90.7455 25.849L90.6104 25.7139V16.8725H97.0389V17.8089H91.6819V20.8881H96.5077V21.8244H91.6819V24.9036H97.174V25.84H90.7455V25.849ZM81.769 21.4283C81.769 19.0153 83.6417 16.8725 86.3248 16.8725C87.9364 16.8725 88.8728 17.5388 89.8091 18.3491L89.1429 19.0153C88.3416 18.3491 88.3416 17.8089 86.3338 17.8089C84.326 17.8089 82.8494 19.4205 82.8494 21.4283C82.8494 23.4361 84.326 25.0477 86.3338 25.0477C87.5403 25.0477 88.3416 24.5075 89.1429 23.7062L89.8091 24.3724C88.8728 25.3088 87.8013 25.984 86.1897 25.984C83.6417 25.984 81.769 23.9763 81.769 21.4283ZM106.547 21.4283C106.547 19.0153 108.284 16.8725 110.967 16.8725C112.444 16.8725 113.38 17.2777 114.317 18.079L113.65 18.8803C112.984 18.214 112.849 17.8089 110.967 17.8089C109.086 17.8089 107.618 19.4205 107.618 21.4283C107.618 23.5711 108.96 25.1827 111.102 25.1827C112.039 25.1827 112.975 24.7776 113.65 24.2464V22.1035H110.967V21.1672H114.587V24.6515C113.668 25.3088 112.489 25.957 111.057 25.984C108.275 25.957 106.556 23.9673 106.556 21.4373L106.547 21.4283ZM117.801 22.9049C118.206 22.3646 118.071 21.6984 118.071 21.6984L116.459 16.7465H117.531L119.007 21.1672L122.357 16.7465H123.563L117 25.7229H115.793L117.801 23.0399V22.9049Z" fill="black"/>
</svg>
